STARTFONT 2.1
FONT -JDECW-Mincho-Medium-R-Normal--17-120-100-100-M-170-JISX0208.1983-1.3
SIZE 12 100 100
FONTBOUNDINGBOX 18 18 0 -3

STARTPROPERTIES 26
FONTNAME_REGISTRY ""
FAMILY_NAME "Mincho"
FOUNDRY "JDECW"
WEIGHT_NAME "Medium"
SLANT "R"
SETWIDTH_NAME "Normal"
ADD_STYLE_NAME ""
PIXEL_SIZE 17
POINT_SIZE 120
RESOLUTION_X 100
RESOLUTION_Y 100
SPACING "M"
AVERAGE_WIDTH 170
CHARSET_REGISTRY "JISX0208.1983"
CHARSET_ENCODING "1"
DEVICE_FONT_NAME "Mincho-JISX0208.1983-1"
CHARSET_COLLECTIONS "JISX0208.1983 1"
FULL_NAME "Mincho-JISX0208.1983-1"
COPYRIGHT "Copyright (c) 1990 1991 TYPEBANK, Digital Equipment Corporation Japan"
CAP_HEIGHT 13
X_HEIGHT 9
WEIGHT 10
QUAD_WIDTH 18
DEFAULT_CHAR 41634
FONT_DESCENT 3
FONT_ASCENT 15
ENDPROPERTIES

CHARS 59

STARTCHAR Ca1a2
ENCODING 41378
SWIDTH 1000 0
DWIDTH 18 0
BBX 18 18 0 -3
BITMAP
000000
000400
000300
000080
000080
000000
000000
000000
000000
000000
000000
000000
000000
000000
000000
000000
000000
000000
ENDCHAR

STARTCHAR Ca1a3
ENCODING 41379
SWIDTH 1000 0
DWIDTH 18 0
BBX 18 18 0 -3
BITMAP
000000
000E00
001100
001100
001100
000E00
000000
000000
000000
000000
000000
000000
000000
000000
000000
000000
000000
000000
ENDCHAR

STARTCHAR Ca1a4
ENCODING 41380
SWIDTH 1000 0
DWIDTH 18 0
BBX 18 18 0 -3
BITMAP
000000
000300
000780
000780
000180
000100
000600
000000
000000
000000
000000
000000
000000
000000
000000
000000
000000
000000
ENDCHAR

STARTCHAR Ca1a5
ENCODING 41381
SWIDTH 1000 0
DWIDTH 18 0
BBX 18 18 0 -3
BITMAP
000000
000600
000F00
000F00
000600
000000
000000
000000
000000
000000
000000
000000
000000
000000
000000
000000
000000
000000
ENDCHAR

STARTCHAR Ca1b1
ENCODING 41393
SWIDTH 1000 0
DWIDTH 18 0
BBX 18 18 0 -3
BITMAP
000000
000080
000080
000080
000080
000080
000080
000080
000080
000080
000080
000080
000080
000080
000080
000080
000080
000000
ENDCHAR

STARTCHAR Ca1b2
ENCODING 41394
SWIDTH 1000 0
DWIDTH 18 0
BBX 18 18 0 -3
BITMAP
000000
400000
400000
400000
400000
400000
400000
400000
400000
400000
400000
400000
400000
400000
400000
400000
400000
000000
ENDCHAR

STARTCHAR Ca1bc
ENCODING 41404
SWIDTH 1000 0
DWIDTH 18 0
BBX 18 18 0 -3
BITMAP
000000
000000
010000
008000
008000
008000
008000
008000
008000
008000
008000
008000
008000
018000
008000
000000
000000
000000
ENDCHAR

STARTCHAR Ca1bd
ENCODING 41405
SWIDTH 1000 0
DWIDTH 18 0
BBX 18 18 0 -3
BITMAP
000000
004000
004000
004000
004000
004000
004000
004000
004000
004000
004000
004000
004000
004000
004000
004000
000000
000000
ENDCHAR

STARTCHAR Ca1be
ENCODING 41406
SWIDTH 1000 0
DWIDTH 18 0
BBX 18 18 0 -3
BITMAP
000000
000000
000000
000000
000000
004000
004000
004000
004000
004000
004000
004000
000000
000000
000000
000000
000000
000000
ENDCHAR

STARTCHAR Ca1c1
ENCODING 41409
SWIDTH 1000 0
DWIDTH 18 0
BBX 18 18 0 -3
BITMAP
000000
000000
004000
008000
010000
010000
010000
010000
008000
008000
004000
004000
004000
004000
008000
010000
000000
000000
ENDCHAR

STARTCHAR Ca1c2
ENCODING 41410
SWIDTH 1000 0
DWIDTH 18 0
BBX 18 18 0 -3
BITMAP
000000
000000
000000
000000
000000
000000
7FFF80
000000
000000
7FFF80
000000
000000
000000
000000
000000
000000
000000
000000
ENDCHAR

STARTCHAR Ca1c3
ENCODING 41411
SWIDTH 1000 0
DWIDTH 18 0
BBX 18 18 0 -3
BITMAP
000000
000000
000000
000000
000000
000000
000000
000000
7FFF80
000000
000000
000000
000000
000000
000000
000000
000000
000000
ENDCHAR

STARTCHAR Ca1c4
ENCODING 41412
SWIDTH 1000 0
DWIDTH 18 0
BBX 18 18 0 -3
BITMAP
000000
000000
00C000
00C000
000000
000000
000000
00C000
00C000
000000
000000
000000
00C000
00C000
000000
000000
000000
000000
ENDCHAR

STARTCHAR Ca1c5
ENCODING 41413
SWIDTH 1000 0
DWIDTH 18 0
BBX 18 18 0 -3
BITMAP
000000
000000
000000
000000
00C000
00C000
000000
000000
000000
000000
000000
000000
00C000
00C000
000000
000000
000000
000000
ENDCHAR

STARTCHAR Ca1c6
ENCODING 41414
SWIDTH 1000 0
DWIDTH 18 0
BBX 18 18 0 -3
BITMAP
000000
000000
000000
000000
000000
000000
000000
000000
000000
000000
000000
000000
000000
000F00
000C80
000C80
000000
000000
ENDCHAR

STARTCHAR Ca1c7
ENCODING 41415
SWIDTH 1000 0
DWIDTH 18 0
BBX 18 18 0 -3
BITMAP
000000
000980
000980
000780
000000
000000
000000
000000
000000
000000
000000
000000
000000
000000
000000
000000
000000
000000
ENDCHAR

STARTCHAR Ca1c8
ENCODING 41416
SWIDTH 1000 0
DWIDTH 18 0
BBX 18 18 0 -3
BITMAP
000000
000000
000000
000000
000000
000000
000000
000000
000000
000000
000000
000F00
000C80
000000
000F00
000C80
000000
000000
ENDCHAR

STARTCHAR Ca1c9
ENCODING 41417
SWIDTH 1000 0
DWIDTH 18 0
BBX 18 18 0 -3
BITMAP
000000
000980
000780
000000
000980
000780
000000
000000
000000
000000
000000
000000
000000
000000
000000
000000
000000
000000
ENDCHAR

STARTCHAR Ca1ca
ENCODING 41418
SWIDTH 1000 0
DWIDTH 18 0
BBX 18 18 0 -3
BITMAP
000000
000000
000000
000000
000000
000000
000000
000000
000000
000000
000000
07F800
180600
200100
400080
000000
000000
000000
ENDCHAR

STARTCHAR Ca1cb
ENCODING 41419
SWIDTH 1000 0
DWIDTH 18 0
BBX 18 18 0 -3
BITMAP
000000
000000
400080
200100
180600
07F800
000000
000000
000000
000000
000000
000000
000000
000000
000000
000000
000000
000000
ENDCHAR

STARTCHAR Ca1cc
ENCODING 41420
SWIDTH 1000 0
DWIDTH 18 0
BBX 18 18 0 -3
BITMAP
000000
000000
000000
000000
000000
000000
000000
000000
000000
000000
000000
0FFC00
100200
200100
400080
000000
000000
000000
ENDCHAR

STARTCHAR Ca1cd
ENCODING 41421
SWIDTH 1000 0
DWIDTH 18 0
BBX 18 18 0 -3
BITMAP
000000
000000
400080
200100
100200
0FFC00
000000
000000
000000
000000
000000
000000
000000
000000
000000
000000
000000
000000
ENDCHAR

STARTCHAR Ca1ce
ENCODING 41422
SWIDTH 1000 0
DWIDTH 18 0
BBX 18 18 0 -3
BITMAP
000000
000000
000000
000000
000000
000000
000000
000000
000000
000000
000000
000000
7FFF80
400080
400080
000000
000000
000000
ENDCHAR

STARTCHAR Ca1cf
ENCODING 41423
SWIDTH 1000 0
DWIDTH 18 0
BBX 18 18 0 -3
BITMAP
000000
000000
400080
400080
7FFF80
000000
000000
000000
000000
000000
000000
000000
000000
000000
000000
000000
000000
000000
ENDCHAR

STARTCHAR Ca1d0
ENCODING 41424
SWIDTH 1000 0
DWIDTH 18 0
BBX 18 18 0 -3
BITMAP
000000
000000
000000
000000
000000
000000
000000
000000
000000
000000
004000
00A000
3F1F00
400080
400080
000000
000000
000000
ENDCHAR

STARTCHAR Ca1d1
ENCODING 41425
SWIDTH 1000 0
DWIDTH 18 0
BBX 18 18 0 -3
BITMAP
000000
000000
400080
400080
3F1F00
00A000
004000
000000
000000
000000
000000
000000
000000
000000
000000
000000
000000
000000
ENDCHAR

STARTCHAR Ca1d2
ENCODING 41426
SWIDTH 1000 0
DWIDTH 18 0
BBX 18 18 0 -3
BITMAP
000000
000000
000000
000000
000000
000000
000000
000000
004000
00A000
011000
020800
040400
080200
100100
200080
000000
000000
ENDCHAR

STARTCHAR Ca1d3
ENCODING 41427
SWIDTH 1000 0
DWIDTH 18 0
BBX 18 18 0 -3
BITMAP
000000
200080
100100
080200
040400
020800
011000
00A000
004000
000000
000000
000000
000000
000000
000000
000000
000000
000000
ENDCHAR

STARTCHAR Ca1d4
ENCODING 41428
SWIDTH 1000 0
DWIDTH 18 0
BBX 18 18 0 -3
BITMAP
000000
000000
000000
000000
000000
004000
00A000
011000
024800
04A400
091200
120900
240480
080200
100100
200080
000000
000000
ENDCHAR

STARTCHAR Ca1d5
ENCODING 41429
SWIDTH 1000 0
DWIDTH 18 0
BBX 18 18 0 -3
BITMAP
000000
200080
100100
080200
240480
120900
091200
04A400
024800
011000
00A000
004000
000000
000000
000000
000000
000000
000000
ENDCHAR

STARTCHAR Ca1d6
ENCODING 41430
SWIDTH 1000 0
DWIDTH 18 0
BBX 18 18 0 -3
BITMAP
000000
000000
000000
000000
000000
000000
000000
000000
000000
000000
07FF80
000080
000080
000080
000080
000000
000000
000000
ENDCHAR

STARTCHAR Ca1d7
ENCODING 41431
SWIDTH 1000 0
DWIDTH 18 0
BBX 18 18 0 -3
BITMAP
000000
000000
400000
400000
400000
400000
7FF800
000000
000000
000000
000000
000000
000000
000000
000000
000000
000000
000000
ENDCHAR

STARTCHAR Ca1d8
ENCODING 41432
SWIDTH 1000 0
DWIDTH 18 0
BBX 18 18 0 -3
BITMAP
000000
000000
000000
000000
000000
000000
000000
07FF80
040080
040080
07FC80
000480
000480
000480
000780
000000
000000
000000
ENDCHAR

STARTCHAR Ca1d9
ENCODING 41433
SWIDTH 1000 0
DWIDTH 18 0
BBX 18 18 0 -3
BITMAP
000000
000000
780000
480000
480000
480000
4FF800
400800
400800
7FF800
000000
000000
000000
000000
000000
000000
000000
000000
ENDCHAR

STARTCHAR Ca1da
ENCODING 41434
SWIDTH 1000 0
DWIDTH 18 0
BBX 18 18 0 -3
BITMAP
000000
000000
000000
000000
000000
000000
000000
000000
000000
000000
7FFF80
7FFF80
780780
600180
400080
000000
000000
000000
ENDCHAR

STARTCHAR Ca1db
ENCODING 41435
SWIDTH 1000 0
DWIDTH 18 0
BBX 18 18 0 -3
BITMAP
000000
000000
400080
600180
780780
7FFF80
7FFF80
000000
000000
000000
000000
000000
000000
000000
000000
000000
000000
000000
ENDCHAR

STARTCHAR Ca2a2
ENCODING 41634
SWIDTH 1000 0
DWIDTH 18 0
BBX 18 18 0 -3
BITMAP
000000
000000
000000
3FFE00
200200
200200
200200
200200
200200
200200
200200
200200
200200
200200
3FFE00
000000
000000
000000
ENDCHAR

STARTCHAR Ca4a1
ENCODING 42145
SWIDTH 1000 0
DWIDTH 18 0
BBX 18 18 0 -3
BITMAP
000000
000000
006000
002000
013C00
00E000
002800
003E00
00C900
014880
025080
026080
024080
01A300
000C00
000000
000000
000000
ENDCHAR

STARTCHAR Ca4a3
ENCODING 42147
SWIDTH 1000 0
DWIDTH 18 0
BBX 18 18 0 -3
BITMAP
000000
000000
000000
000000
080400
040200
040200
040100
048100
048100
050000
030000
010000
000000
000000
000000
000000
000000
ENDCHAR

STARTCHAR Ca4a5
ENCODING 42149
SWIDTH 1000 0
DWIDTH 18 0
BBX 18 18 0 -3
BITMAP
000000
000000
000000
001800
000600
000000
000E00
00B100
004080
000080
000080
000080
000100
000600
001800
000000
000000
000000
ENDCHAR

STARTCHAR Ca4a7
ENCODING 42151
SWIDTH 1000 0
DWIDTH 18 0
BBX 18 18 0 -3
BITMAP
000000
000000
000000
006000
001800
000000
000000
013C00
00C800
001000
002000
005000
008800
010800
020780
000000
000000
000000
ENDCHAR

STARTCHAR Ca4a9
ENCODING 42153
SWIDTH 1000 0
DWIDTH 18 0
BBX 18 18 0 -3
BITMAP
000000
000000
000000
00C000
004900
027080
01C080
004000
005E00
00E100
014080
024080
024880
01C700
000000
000000
000000
000000
ENDCHAR

STARTCHAR Ca4c3
ENCODING 42179
SWIDTH 1000 0
DWIDTH 18 0
BBX 18 18 0 -3
BITMAP
000000
000000
000000
000000
000000
007800
138400
0C0200
000200
000200
000200
000C00
00F000
000000
000000
000000
000000
000000
ENDCHAR

STARTCHAR Ca4e3
ENCODING 42211
SWIDTH 1000 0
DWIDTH 18 0
BBX 18 18 0 -3
BITMAP
000000
000000
003000
018800
008000
009F00
006080
05C080
024880
002700
002000
002000
001000
001000
001000
000000
000000
000000
ENDCHAR

STARTCHAR Ca4e5
ENCODING 42213
SWIDTH 1000 0
DWIDTH 18 0
BBX 18 18 0 -3
BITMAP
000000
000000
001800
040800
020E00
023900
024880
048880
048880
050880
052900
021E00
020800
001000
002000
000000
000000
000000
ENDCHAR

STARTCHAR Ca4e7
ENCODING 42215
SWIDTH 1000 0
DWIDTH 18 0
BBX 18 18 0 -3
BITMAP
000000
000000
002000
001000
001000
001100
001E00
001000
001000
001000
001000
01F000
021C00
011300
00F000
000000
000000
000000
ENDCHAR

STARTCHAR Ca4ee
ENCODING 42222
SWIDTH 1000 0
DWIDTH 18 0
BBX 18 18 0 -3
BITMAP
000000
000000
000000
018000
008000
008000
059E00
02E100
008080
018080
028080
048080
0A8300
019C00
008000
000000
000000
000000
ENDCHAR

STARTCHAR Ca5a1
ENCODING 42401
SWIDTH 1000 0
DWIDTH 18 0
BBX 18 18 0 -3
BITMAP
000000
000000
000000
000100
03FF80
000100
000200
002400
001800
001000
001000
002000
004000
008000
000000
000000
000000
000000
ENDCHAR

STARTCHAR Ca5a3
ENCODING 42403
SWIDTH 1000 0
DWIDTH 18 0
BBX 18 18 0 -3
BITMAP
000000
000000
000000
000100
000080
000100
000200
000400
000C00
001400
006400
018400
000400
000400
000400
000000
000000
000000
ENDCHAR

STARTCHAR Ca5a5
ENCODING 42405
SWIDTH 1000 0
DWIDTH 18 0
BBX 18 18 0 -3
BITMAP
000000
000000
000000
003000
001000
011100
01FF80
010100
010100
010100
000200
000200
000400
000800
003000
000000
000000
000000
ENDCHAR

STARTCHAR Ca5a7
ENCODING 42407
SWIDTH 1000 0
DWIDTH 18 0
BBX 18 18 0 -3
BITMAP
000000
000000
000000
000000
000400
0FFC00
008000
008000
008000
008000
008000
008200
1FFE00
000000
000000
000000
000000
000000
ENDCHAR

STARTCHAR Ca5a9
ENCODING 42409
SWIDTH 1000 0
DWIDTH 18 0
BBX 18 18 0 -3
BITMAP
000000
000000
000000
001800
000800
000900
03FF00
002800
002800
004800
008800
010800
063800
000800
000000
000000
000000
000000
ENDCHAR

STARTCHAR Ca5c3
ENCODING 42435
SWIDTH 1000 0
DWIDTH 18 0
BBX 18 18 0 -3
BITMAP
000000
000000
000000
000000
004200
022100
012100
010200
000200
000400
000800
001000
006000
018000
000000
000000
000000
000000
ENDCHAR

STARTCHAR Ca5e3
ENCODING 42467
SWIDTH 1000 0
DWIDTH 18 0
BBX 18 18 0 -3
BITMAP
000000
000000
000000
008000
004000
004700
00F900
074200
004400
002800
002000
002000
001000
001000
001000
000000
000000
000000
ENDCHAR

STARTCHAR Ca5e5
ENCODING 42469
SWIDTH 1000 0
DWIDTH 18 0
BBX 18 18 0 -3
BITMAP
000000
000000
000000
000000
000000
001000
07F800
001000
001000
001000
001000
001200
1FFE00
000000
000000
000000
000000
000000
ENDCHAR

STARTCHAR Ca5e7
ENCODING 42471
SWIDTH 1000 0
DWIDTH 18 0
BBX 18 18 0 -3
BITMAP
000000
000000
000000
000000
000400
03FE00
000400
000400
000400
01FC00
000400
000400
000400
03FE00
000000
000000
000000
000000
ENDCHAR

STARTCHAR Ca5ee
ENCODING 42478
SWIDTH 1000 0
DWIDTH 18 0
BBX 18 18 0 -3
BITMAP
000000
000000
000000
020200
03FF00
020200
020200
020200
020400
000400
000800
001000
002000
00C000
000000
000000
000000
000000
ENDCHAR

STARTCHAR Ca5f5
ENCODING 42485
SWIDTH 1000 0
DWIDTH 18 0
BBX 18 18 0 -3
BITMAP
000000
000000
000000
003000
001000
001100
01FF80
001100
002100
002100
004100
004200
008A00
010400
020000
000000
000000
000000
ENDCHAR

STARTCHAR Ca5f6
ENCODING 42486
SWIDTH 1000 0
DWIDTH 18 0
BBX 18 18 0 -3
BITMAP
000000
000000
000000
00C000
004000
004080
00FF80
008800
010800
020800
001000
001000
002000
00C000
000000
000000
000000
000000
ENDCHAR
ENDFONT
